# xmcd
#
# Track frame offsets:
#	150
#	28849
#	51349
#	72804
#	94959
#	115696
#	130296
#	151026
#	170003
#	193062
#
# Disc length: 2884 seconds
# Revision: 0
# Processed by: cddbd v1.5.2PL0 Copyright (c) Steve Scherf et al.
# Submitted via: dBpowerAMP V12.0
#
DISCID=880b420a
DTITLE=Lillo Thomas - All Of You
DYEAR=2007
DGENRE=Funk
TTITLE0=Your Love's Got A Hold On Me
TTITLE1=Holding On
TTITLE2=Show Me
TTITLE3=Settle Down
TTITLE4=All Of You
TTITLE5=My Girl
TTITLE6=Never Give You Up
TTITLE7=I Like Your Style
TTITLE8=Bonus Track: Her Love
TTITLE9=Bonus Track: Sweet Surrender
EXTD=
EXTT0=
EXTT1=
EXTT2=
EXTT3=
EXTT4=
EXTT5=
EXTT6=
EXTT7=
EXTT8=
EXTT9=
PLAYORDER=
